<svg id="Capa_1" data-name="Capa 1" xmlns="http://www.w3.org/2000/svg" viewBox="0 0 294.84 294.84"><defs><style>.cls-1{fill:#fff;}</style></defs><title>icon_playbutton</title><path class="cls-1" d="M278.53,79.95A148.73,148.73,0,0,0,235,28.81a6,6,0,1,0-7.13,9.65,136.68,136.68,0,0,1,40,47,133.93,133.93,0,0,1,15,62c0,74.67-60.75,135.42-135.42,135.42S12,222.09,12,147.42,72.75,12,147.42,12a6,6,0,1,0,0-12C66.13,0,0,66.13,0,147.42S66.13,294.84,147.42,294.84s147.42-66.13,147.42-147.42A147.83,147.83,0,0,0,278.53,79.95Z" transform="translate(0 0)"/><path class="cls-1" d="M109.7,79a6,6,0,0,0-3,5.22V215.86a6,6,0,0,0,12,0V94.74l88.83,52.88-65.32,42.09a6,6,0,1,0,6.5,10.09l73.46-47.33a6,6,0,0,0-.18-10.2L115.73,79A6,6,0,0,0,109.7,79Z" transform="translate(0 0)"/></svg>