<?xml version="1.0" encoding="utf-8"?>
<!-- Generator: Adobe Illustrator 16.0.0, SVG Export Plug-In . SVG Version: 6.00 Build 0)  -->
<!DOCTYPE svg PUBLIC "-//W3C//DTD SVG 1.1//EN" "http://www.w3.org/Graphics/SVG/1.1/DTD/svg11.dtd">
<svg version="1.1" id="Слой_1" xmlns="http://www.w3.org/2000/svg" xmlns:xlink="http://www.w3.org/1999/xlink" x="0px" y="0px"
	 width="16.143px" height="16.144px" viewBox="11.929 11.928 16.143 16.144" enable-background="new 11.929 11.928 16.143 16.144"
	 xml:space="preserve">
<path fill="#FFFFFF" d="M12.222,26.363l14.143-14.142c0.391-0.391,1.023-0.39,1.414,0c0.391,0.391,0.391,1.023,0,1.415
	L13.636,27.777c-0.391,0.392-1.023,0.392-1.415,0C11.832,27.389,11.832,26.755,12.222,26.363z M13.636,12.222l14.141,14.143
	c0.392,0.391,0.392,1.023,0,1.414c-0.391,0.391-1.022,0.391-1.414,0L12.222,13.636c-0.39-0.391-0.391-1.023,0-1.415
	C12.612,11.832,13.246,11.832,13.636,12.222z"/>
</svg>
