<?xml version="1.0" encoding="utf-8"?>
<!-- Generator: Adobe Illustrator 16.0.0, SVG Export Plug-In . SVG Version: 6.00 Build 0)  -->
<!DOCTYPE svg PUBLIC "-//W3C//DTD SVG 1.1//EN" "http://www.w3.org/Graphics/SVG/1.1/DTD/svg11.dtd">
<svg version="1.1" id="Layer_1" xmlns="http://www.w3.org/2000/svg" xmlns:xlink="http://www.w3.org/1999/xlink" x="0px" y="0px"
	 width="595.281px" height="841.891px" viewBox="0 0 595.281 841.891" enable-background="new 0 0 595.281 841.891"
	 xml:space="preserve">
<g>
	<g>
		<path fill="#000468" d="M297.64,123.305c-109.898,0-199.19,89.292-199.19,199.189c0,32.054,9.158,66.396,22.896,93.871
			l164.847,295.351c2.29,4.579,6.869,6.869,11.448,6.869c4.578,0,9.158-2.29,11.447-6.869l164.848-295.351
			c16.027-29.764,22.895-61.817,22.895-93.871C496.83,212.597,407.539,123.305,297.64,123.305z"/>
	</g>
</g>
<path fill="#FFFFFF" d="M243.371,273.709c-7.139-3.407-14.439-5.029-24.013-5.029c-25.148,0-41.373,17.198-41.373,40.237
	c0,19.794,12.817,29.854,31.962,29.854c6.814,0,14.44-1.298,22.715-4.705l-3.731,24.012c-7.139,2.272-15.739,3.408-26.123,3.408
	c-30.339,0-55.813-15.738-55.813-50.297c0-38.453,31.476-65.386,71.227-65.386c11.845,0,22.877,1.784,31.801,5.191L243.371,273.709z
	"/>
<path fill="#FFFFFF" d="M419.89,246.939l-19.469,91.183h47.863l-4.706,22.065H365.7l24.012-113.249H419.89z"/>
<path fill="#FFFFFF" d="M301.941,246.939h-33.585l-4.448,20.977l-0.059,0.277h29.979h3.569c22.228,0,34.882,9.897,34.882,28.718
	c0,24.986-17.685,41.536-47.536,41.536h-5.68l13.573-64.58h-29.991l-18.303,86.321h46.891c39.425,0,71.548-22.714,71.548-63.438
	C362.782,263.163,339.257,246.939,301.941,246.939z"/>
</svg>
