<svg xmlns="http://www.w3.org/2000/svg" viewBox="0 0 789.59 501.88"><title>logo_cdlroom</title><path d="M360.18,144.25c-18.71-8.93-37.84-13.18-62.93-13.18-65.91,0-108.43,45.07-108.43,105.45,0,51.87,33.59,78.24,83.76,78.24,17.86,0,37.84-3.4,59.53-12.33l-9.78,62.93c-18.71,6-41.24,8.93-68.46,8.93-79.51,0-146.27-41.24-146.27-131.81,0-100.77,82.49-171.36,186.66-171.36,31,0,60,4.68,83.34,13.61Z" transform="translate(-107.61 -71.12)" style="fill:#00468e"/><path d="M822.79,74.1l-51,239H897.2l-12.33,57.83H680.77L743.7,74.1h79.09Z" transform="translate(-107.61 -71.12)" style="fill:#00468e"/><path d="M513.68,74.1h-88l-11.66,55-0.15.73h87.92c58.25,0,91.42,25.94,91.42,75.26,0,65.48-46.35,108.85-124.58,108.85H453.72l35.57-169.24H410.7l-48,226.22H485.61c103.32,0,187.51-59.53,187.51-166.25C673.13,116.62,611.47,74.1,513.68,74.1Z" transform="translate(-107.61 -71.12)" style="fill:#00468e"/><path d="M273.66,573l42.56-163H125.15S240,433.39,273.66,573Z" transform="translate(-107.61 -71.12)" style="fill:#00468e"/><path d="M371.84,433.34c-0.93,6-2.32,12.55-4.42,21.15h0.46c10-15.57,22.31-23.94,36.26-23.94a38.67,38.67,0,0,1,13.25,2.09L413,451.24a26,26,0,0,0-11.16-2.32c-24.41,0-35.8,24.87-41.37,51.83l-10.69,51.14H327.91l17.43-82.05c3.49-17.2,5.35-27,6.74-36.49h19.76Z" transform="translate(-107.61 -71.12)" style="fill:#00468e"/><path d="M534.55,481.92c0,40-23.94,72.75-66,72.75-32.31,0-51.6-20.69-51.6-51.83,0-40,27.66-72.29,66.71-72.29C515.49,430.55,534.55,451,534.55,481.92Zm-95.07,20.92c0,20.69,10.69,34.17,29.75,34.17,27.43,0,43-26.5,43-54.16,0-21.15-10.69-34.63-30.22-34.63C456,448.22,439.48,474,439.48,502.84Z" transform="translate(-107.61 -71.12)" style="fill:#00468e"/><path d="M674,481.92c0,40-23.94,72.75-66,72.75-32.31,0-51.6-20.69-51.6-51.83,0-40,27.66-72.29,66.71-72.29C655,430.55,674,451,674,481.92Zm-95.07,20.92c0,20.69,10.69,34.17,29.75,34.17,27.43,0,43-26.5,43-54.16,0-21.15-10.69-34.63-30.22-34.63C595.45,448.22,578.94,474,578.94,502.84Z" transform="translate(-107.61 -71.12)" style="fill:#00468e"/><path d="M732.12,454c9.3-13.48,23-23.48,40-23.48s27.66,8.83,31.15,22.08c10.46-13.95,25.8-22.08,42.3-22.08,22.31,0,34.17,12.32,34.17,32.54,0,8.6-2.09,18.83-4,27.66l-13.25,61.13H840.67l13.25-61.6c2.09-9.76,3.49-18.36,3.49-24.17,0-10-4.88-17.9-18.59-17.9-16,0-30.91,15.81-35.79,37.89l-14.88,65.78H766.29l14.41-67.64c2.09-10,2.79-14.41,2.79-18.13,0-11.16-6.74-17.9-17.9-17.9-10.69,0-22.31,7.44-30.68,21.62-4.88,8.14-7,15.81-11.62,37.66l-9.3,44.4H692.14l19.76-93c1.63-7.9,3.25-16.74,4.42-25.57h19.76c-0.93,5.81-3,14.88-4.42,20.69h0.46Z" transform="translate(-107.61 -71.12)" style="fill:#00468e"/></svg>